<?xml version="1.0" encoding="utf-8"?>
<!-- Generator: Adobe Illustrator 19.0.0, SVG Export Plug-In . SVG Version: 6.00 Build 0)  -->
<!DOCTYPE svg PUBLIC "-//W3C//DTD SVG 1.1//EN" "http://www.w3.org/Graphics/SVG/1.1/DTD/svg11.dtd" [
	<!ENTITY ns_extend "http://ns.adobe.com/Extensibility/1.0/">
	<!ENTITY ns_ai "http://ns.adobe.com/AdobeIllustrator/10.0/">
	<!ENTITY ns_graphs "http://ns.adobe.com/Graphs/1.0/">
	<!ENTITY ns_vars "http://ns.adobe.com/Variables/1.0/">
	<!ENTITY ns_imrep "http://ns.adobe.com/ImageReplacement/1.0/">
	<!ENTITY ns_sfw "http://ns.adobe.com/SaveForWeb/1.0/">
	<!ENTITY ns_custom "http://ns.adobe.com/GenericCustomNamespace/1.0/">
	<!ENTITY ns_adobe_xpath "http://ns.adobe.com/XPath/1.0/">
]>
<svg version="1.1" id="Layer_1" xmlns:x="&ns_extend;" xmlns:i="&ns_ai;" xmlns:graph="&ns_graphs;"
	 xmlns="http://www.w3.org/2000/svg" xmlns:xlink="http://www.w3.org/1999/xlink" x="0px" y="0px" width="188.3000031px"
	 height="53.8050385px" viewBox="-203 401.9900208 188.3000031 53.8050385"
	 style="enable-background:new -203 401.9900208 188.3000031 53.8050385;" xml:space="preserve">
<style type="text/css">
	.st0{fill:#3DB054;}
</style>
<switch>
	<g i:extraneous="self">
		<g>
			<path class="st0" d="M-185.1999969,424.7900085c-0.8000031,0.5-2.1999969,0.2999878-2.9000092-0.2000122
				c-0.5999908-0.5-0.5-1.1000061,0.3000031-1.5c0.6999969-0.2999878,1.8000031-0.1999817,2.5,0.1000061
				C-184.6000061,423.6900024-184.3999939,424.3900146-185.1999969,424.7900085"/>
			<path class="st0" d="M-189.1000061,422.6900024c-0.0999908,0.5-0.8999939,0.8999939-1.7999878,0.8999939
				c-0.9000092,0-1.5-0.3999939-1.2000122-0.8999939c0.2000122-0.3999939,1-0.6999817,1.7000122-0.6999817
				C-189.6999969,421.9900208-189,422.2900085-189.1000061,422.6900024"/>
			<path class="st0" d="M-193.6000061,422.9900208c0.5,0.2999878,0.3000031,0.8999939-0.5999908,1.2999878
				c-0.9000092,0.5-2.1000061,0.6000061-2.5,0.2000122c-0.4000092-0.4000244,0.0999908-1,0.8999939-1.4000244
				C-195,422.7900085-194.1000061,422.6900024-193.6000061,422.9900208"/>
			<path class="st0" d="M-198.1000061,425.5899963c1.1000061-0.0999756,1.8000031,0.4000244,1.4000092,1.2000122
				c-0.4000092,1-2,2.1000061-3.5,2.2999878c-1.5,0.2000122-2-0.5999756-1.1999969-1.6999817
				C-200.6000061,426.4900208-199.1999969,425.6900024-198.1000061,425.5899963"/>
			<path class="st0" d="M-200.3999939,431.1900024c1.5999908-1.3999939,3.5-1.7999878,4.3999939-1.1000061
				c1.1000061,0.8000183,0.8999939,2.9000244-0.8000031,5c-2.0999908,2.5-5,3.5-6,1.8000183
				C-203.6000061,435.3900146-202.3000031,432.7900085-200.3999939,431.1900024"/>
			<path class="st0" d="M-193.5,435.7900085c-0.1999969-2.3999939,1.1000061-4.5,2.6999969-5.1000061
				c1.6000061-0.6000061,3.4000092,0.1000061,4.3000031,1.8999939c1.1999969,2.3000183,0.6000061,5.5-1.6999969,6.8000183
				C-190.6999969,440.7900085-193.1999969,438.7900085-193.5,435.7900085"/>
			<path class="st0" d="M-182.5,426.2900085c0.8000031,0.5,1.3999939,1.7000122,1.1999969,2.6000061
				c-0.0999908,0.7999878-0.8000031,1-1.3999939,0.5c-0.6000061-0.5-1.1000061-1.3999939-1.1000061-2.2000122
				C-183.8000031,426.2900085-183.3000031,425.7900085-182.5,426.2900085"/>
			<path class="st0" d="M-182.3999939,430.6900024c0.3999939-0.1999817,1.1999969,0.3000183,1.6999969,1.1000061
				s0.3999939,1.5-0.1000061,1.5s-1.0999908-0.5-1.5-1.1000061
				C-182.6999969,431.4900208-182.8000031,430.7900085-182.3999939,430.6900024"/>
			<path class="st0" d="M-179.8999939,434.3900146c0-0.6000061,0.5999908-0.7000122,1.5-0.2000122
				c0.8999939,0.6000061,1.5,1.5,1.3999939,2.1000061c-0.1000061,0.5-0.8999939,0.3999939-1.6000061-0.1000061
				C-179.3999939,435.6900024-179.8999939,434.8900146-179.8999939,434.3900146"/>
			<path class="st0" d="M-175.3999939,436.9900208c-0.7000122-0.9000244-0.6000061-1.7000122,0.2999878-1.8000183
				c1.1000061-0.1000061,2.8000031,0.7000122,3.7000122,1.8999939c0.8999939,1.2000122,0.5,2-0.9000092,1.9000244
				C-173.3000031,438.7900085-174.6999969,437.8900146-175.3999939,436.9900208"/>
			<path class="st0" d="M-169.3999939,436.1900024c-2-0.6999817-3.3000031-2.1000061-3.2000122-3.2999878
				c0.2000122-1.3000183,2.1000061-2.2000122,4.7000122-1.8000183c3.1999969,0.5,5.5,2.6000061,4.5,4.3000183
				C-164.1999969,436.8900146-167.1000061,437.0899963-169.3999939,436.1900024"/>
			<path class="st0" d="M-168.8999939,427.9900208c-2,1.3999939-4.4000092,1.2999878-5.8000031,0.1999817
				c-1.3000031-1.1000061-1.6000061-3-0.5-4.6999817c1.3999939-2.1000061,4.5-3.3000183,6.8000031-2
				C-165.8999939,422.9900208-166.3999939,426.1900024-168.8999939,427.9900208"/>
			<path class="st0" d="M-182.6000061,423.1900024c0-0.8999939,0.8000031-2.1000061,1.6000061-2.3999939
				s1.1999969,0.2000122,1.1000061,1c-0.1000061,0.7999878-0.7000122,1.7000122-1.4000092,2.1000061
				C-181.8999939,424.2900085-182.6000061,424.0899963-182.6000061,423.1900024"/>
			<path class="st0" d="M-178.8999939,420.8900146c-0.4000092-0.3000183-0.3000031-1.2000122,0.0999908-2
				c0.5-0.8000183,1.1000061-1.1000061,1.4000092-0.6000061c0.2999878,0.3999939,0.0999908,1.2000122-0.2000122,1.8999939
				C-177.8999939,420.7900085-178.5,421.0899963-178.8999939,420.8900146"/>
			<path class="st0" d="M-176.8999939,416.7900085c-0.5,0.2999878-0.9000092-0.2000122-0.9000092-1.2000122
				s0.6000061-2.0999756,1.1000061-2.2999878c0.5-0.1000061,0.8000031,0.6000061,0.6999969,1.5
				C-176,415.6900024-176.3999939,416.5899963-176.8999939,416.7900085"/>
			<path class="st0" d="M-176.8000031,411.6900024c-0.3999939,1-1.1999969,1.3999939-1.8000031,0.6000061
				c-0.6999969-0.7999878-0.7999878-2.7999878-0.2999878-4.2000122c0.5999908-1.3999939,1.5-1.3999939,2-0.1999817
				C-176.3999939,408.9900208-176.3999939,410.5899963-176.8000031,411.6900024"/>
			<path class="st0" d="M-180.5,406.8900146c0.3999939,2.1000061-0.1999969,3.8999939-1.3000031,4.3999939
				c-1.1999969,0.5-3-0.7000122-3.8999939-3.2000122c-1.1999969-3.0999756-0.5-6.0999756,1.3999939-6.0999756
				C-182.6000061,401.9900208-181,404.3900146-180.5,406.8900146"/>
			<path class="st0" d="M-188,410.4900208c2.1999969,1,3.3999939,3.1999817,3.1000061,4.8999939
				c-0.3000031,1.6999817-1.8000031,2.8999939-3.8000031,2.7999878c-2.5-0.1000061-5.1000061-2.2000122-5.1000061-4.8999939
				C-193.8000031,410.4900208-190.8000031,409.2900085-188,410.4900208"/>
			<path d="M-151.6000061,417.3900146v5.6999817h4.2000122c1.1999969,0,2.1999969-0.1999817,2.6999969-0.6999817
				c0.5999908-0.5,0.9000092-1.2000122,0.9000092-2.2000122s-0.3000031-1.7000122-0.9000092-2.2000122
				c-0.5999908-0.5-1.5-0.6999817-2.6999969-0.6999817h-4.2000122V417.3900146z M-151.6000061,426.0899963v7.5h-3.0999908v-19
				h7.4000092c2.1999969,0,3.7999878,0.5,5,1.5c1.1999969,1,1.6999969,2.4000244,1.6999969,4.2000122
				s-0.6000061,3.2000122-1.6999969,4.2000122c-1.2000122,1-2.8000031,1.5-5,1.5h-4.3000183V426.0899963z"/>
			<path d="M-132.6000061,422.6900024c-1,0-1.7999878,0.3000183-2.2999878,0.8999939
				c-0.6000061,0.6000061-1,1.4000244-1.1000061,2.3000183h6.6999969c-0.1999969-1-0.5-1.8000183-1.0999908-2.3999939
				C-130.8999939,422.9900208-131.6999969,422.6900024-132.6000061,422.6900024 M-132.5,420.1900024
				c1.8000031,0,3.3000031,0.6000061,4.3999939,1.8999939c1.1000061,1.3000183,1.7000046,2.9000244,1.7000046,4.9000244
				c0,0.3999939,0,0.7999878-0.0999985,1.0999756h-9.5c0.1999969,1.1000061,0.6000061,1.9000244,1.3000031,2.5
				c0.6999969,0.6000061,1.5999908,0.8000183,2.5,0.8000183c1.4000092,0,2.5999908-0.5,3.8000031-1.3999939l1.4000015,2
				c-1.4000015,1.1999817-3.1999893,1.7999878-5.2999954,1.7999878c-2,0-3.6000061-0.6000061-4.8000183-1.8999939
				C-138.3000031,430.5899963-139,429.0899963-139,426.9900208c0-2,0.6000061-3.7000122,1.8000031-4.9000244
				C-136,420.7900085-134.3999939,420.1900024-132.5,420.1900024"/>
			<path d="M-117.6999969,422.6900024c-1,0-1.8000031,0.3000183-2.3000031,0.8999939
				c-0.5999985,0.6000061-1,1.4000244-1.0999985,2.3000183h6.6999969c-0.1999969-1-0.5-1.8000183-1.0999985-2.3999939
				C-116.0999985,422.9900208-116.8000031,422.6900024-117.6999969,422.6900024 M-117.6999969,420.1900024
				c1.8000031,0,3.3000031,0.6000061,4.4000015,1.8999939c1.0999985,1.3000183,1.6999969,2.9000244,1.6999969,4.9000244
				c0,0.3999939,0,0.7999878-0.0999985,1.0999756h-9.5999985c0.1999969,1.1000061,0.5999985,1.9000244,1.3000031,2.5
				c0.6999969,0.6000061,1.5999985,0.8000183,2.5,0.8000183c1.4000015,0,2.5999985-0.5,3.8000031-1.3999939l1.4000015,2
				c-1.4000015,1.1999817-3.1999969,1.7999878-5.3000031,1.7999878c-2,0-3.5999985-0.6000061-4.8000031-1.8999939
				c-1.1999969-1.3000183-1.9000015-2.8999939-1.9000015-5c0-2,0.5999985-3.7000122,1.8000031-4.8999939
				C-121.0999985,420.7900085-119.5999985,420.1900024-117.6999969,420.1900024"/>
			<path d="M-101.9000015,420.1900024c0.8000031,0,1.5999985,0.1000061,2.1999969,0.3999939l-0.6999969,2.8000183
				c-0.5999985-0.3000183-1.3000031-0.5-2.1999969-0.5c-0.9000015,0-1.6999969,0.2999878-2.1999969,0.8999939
				c-0.5999985,0.6000061-0.9000015,1.5-0.9000015,2.6000061v7.1000061H-108.5v-13h2.8000031v1.5
				C-104.8000031,420.7900085-103.5999985,420.1900024-101.9000015,420.1900024"/>
		</g>
		<path d="M-94.3000031,425.7900085H-88l-3.1999969-8.2000122L-94.3000031,425.7900085z M-81.6999969,433.4900208H-85
			l-1.9000015-4.8000183H-95.5l-1.9000015,4.8000183h-3.1999969l7.5-19h3.8000031L-81.6999969,433.4900208z"/>
		<g>
			<path d="M-70.1000061,423.7900085c-0.5-0.2999878-1.1000061-0.5-1.8000031-0.7999878
				c-0.6999969-0.2000122-1.5-0.3000183-2.1999969-0.3000183c-0.8000031,0-1.4000015,0.1000061-1.8000031,0.3999939
				c-0.4000015,0.3000183-0.5999985,0.7000122-0.5999985,1.1000061s0.1999969,0.7000122,0.5,0.8999939
				c0.4000015,0.2000122,0.9000015,0.3000183,1.5999985,0.4000244l1.3000031,0.1999817c3,0.3999939,4.5,1.7000122,4.5,3.8000183
				c0,1.2999878-0.5,2.2999878-1.6000061,3.0999756c-1,0.8000183-2.5,1.2000122-4.3000031,1.2000122
				c-0.9000015,0-1.8000031-0.1000061-2.8000031-0.3999939c-1-0.2000122-1.9000015-0.7000122-2.8000031-1.3000183
				l1.3000031-2.0999756c1.0999985,0.8999939,2.5999985,1.2999878,4.3000031,1.2999878c1,0,1.6999969-0.1000061,2.1999969-0.3999939
				c0.5-0.3000183,0.8000031-0.7000122,0.8000031-1.2000122c0-0.7999878-0.8000031-1.1999817-2.3000031-1.3999939
				l-1.4000015-0.2000122c-1.4000015-0.1999817-2.5-0.5999756-3.3000031-1.2999878
				c-0.6999969-0.6000061-1.0999985-1.5-1.0999985-2.5c0-1.2999878,0.5-2.2999878,1.4000015-3
				c1-0.7000122,2.3000031-1.1000061,3.9000015-1.1000061c2.1000061,0,3.8000031,0.5,5.3000031,1.3999939L-70.1000061,423.7900085z"
				/>
			<path d="M-56.8000031,423.7900085c-0.5-0.2999878-1.1000061-0.5-1.8000031-0.7999878
				c-0.6999969-0.2000122-1.5-0.3000183-2.1999969-0.3000183c-0.8000031,0-1.3999939,0.1000061-1.8000031,0.3999939
				c-0.3999939,0.3000183-0.6999969,0.7000122-0.6999969,1.1000061s0.1999969,0.7000122,0.5,0.8999939
				c0.3999939,0.2000122,0.8999939,0.3000183,1.6000061,0.4000244l1.3000031,0.1999817c3,0.3999939,4.5,1.7000122,4.5,3.8000183
				c0,1.2999878-0.5,2.2999878-1.6000061,3.0999756c-1,0.8000183-2.5,1.2000122-4.3000031,1.2000122
				c-0.8999939,0-1.8000031-0.1000061-2.8000031-0.3999939c-1-0.2000122-1.8999939-0.7000122-2.8000031-1.3000183
				l1.3000031-2.0999756C-64.5,430.8900146-63,431.2900085-61.3000031,431.2900085c1,0,1.6999969-0.1000061,2.1999969-0.3999939
				c0.5-0.3000183,0.8000031-0.7000122,0.8000031-1.2000122c0-0.7999878-0.8000031-1.1999817-2.3000031-1.3999939L-62,428.0899963
				c-1.3999939-0.1999817-2.5-0.5999756-3.3000031-1.2999878c-0.6999969-0.6000061-1.1000061-1.5-1.1000061-2.5
				c0-1.2999878,0.5-2.2999878,1.3999939-3c1-0.7000122,2.3000031-1.1000061,3.8999939-1.1000061
				c2.1000061,0,3.8000031,0.5,5.3000031,1.3999939L-56.8000031,423.7900085z"/>
			<path d="M-46.8000031,422.6900024c-1,0-1.8000031,0.3000183-2.3000031,0.8999939
				c-0.6000061,0.6000061-1,1.4000244-1.1000061,2.3000183h6.6999969c-0.1999969-1-0.5-1.8000183-1.1000061-2.3999939
				C-45.1999969,422.9900208-45.8999939,422.6900024-46.8000031,422.6900024 M-46.8000031,420.1900024
				c1.8000031,0,3.3000031,0.6000061,4.3999939,1.8999939c1.1000061,1.3000183,1.6999969,2.9000244,1.6999969,4.9000244
				c0,0.3999939,0,0.7999878-0.1000061,1.0999756h-9.6000061c0.1999969,1.1000061,0.6000061,1.9000244,1.3000031,2.5
				c0.6999969,0.6000061,1.6000061,0.8000183,2.5,0.8000183c1.3999939,0,2.6000061-0.5,3.8000031-1.3999939l1.3999939,2
				c-1.3999939,1.1999817-3.1999969,1.7999878-5.3000031,1.7999878c-2,0-3.6000061-0.6000061-4.8000031-1.8999939
				c-1.1999969-1.3000183-1.8000031-2.8999939-1.8000031-5c0-2,0.6000061-3.7000122,1.8000031-4.8999939
				C-50.1999969,420.7900085-48.6999969,420.1900024-46.8000031,420.1900024"/>
			<path d="M-28.6999969,423.0899963h-5v5.7000122c0,0.7999878,0.1999969,1.3999939,0.6000061,1.7999878
				c0.3999939,0.3999939,0.8999939,0.6000061,1.5,0.6000061c0.8000031,0,1.6999969-0.2999878,2.6000061-0.8999939
				l1.1000061,2.2999878c-1.3000031,0.8999939-2.6000061,1.3000183-4,1.3000183c-1.5,0-2.6999969-0.4000244-3.5-1.2000122
				s-1.1999969-2.1000061-1.1999969-3.7999878v-5.7000122h-2.6000061v-2.6000061h2.6000061v-3.8999939h2.8000031v3.8999939h5v2.5
				H-28.6999969z"/>
			<path d="M-16.1999969,423.7900085c-0.5-0.2999878-1.1000061-0.5-1.8000031-0.7999878
				c-0.6999969-0.2000122-1.5-0.3000183-2.1999969-0.3000183c-0.8000031,0-1.3999939,0.1000061-1.8000031,0.3999939
				c-0.3999939,0.3000183-0.6999969,0.7000122-0.6999969,1.1000061s0.1999969,0.7000122,0.5,0.8999939
				c0.3999939,0.2000122,0.8999939,0.3000183,1.6000061,0.4000244l1.3000031,0.1999817c3,0.3999939,4.5,1.7000122,4.5,3.8000183
				c0,1.2999878-0.5,2.2999878-1.6000061,3.0999756c-1,0.8000183-2.5,1.2000122-4.3000031,1.2000122
				c-0.8999939,0-1.8000031-0.1000061-2.8000031-0.3999939c-1-0.2000122-1.8999939-0.7000122-2.8000031-1.3000183L-25,429.9900208
				c1.1000061,0.8999939,2.6000061,1.2999878,4.3000031,1.2999878c1,0,1.6999969-0.1000061,2.1999969-0.3999939
				c0.5-0.3000183,0.8000031-0.7000122,0.8000031-1.2000122c0-0.7999878-0.8000031-1.1999817-2.3000031-1.3999939
				l-1.3999939-0.2000122c-1.3999939-0.1999817-2.5-0.5999756-3.3000031-1.2999878
				c-0.6999969-0.6000061-1.1000061-1.5-1.1000061-2.5c0-1.2999878,0.5-2.2999878,1.3999939-3
				c1-0.7000122,2.3000031-1.1000061,3.8999939-1.1000061c2.1000061,0,3.8000031,0.5,5.3000031,1.3999939L-16.1999969,423.7900085z"
				/>
		</g>
		<g>
			<path class="st0" d="M-132.8808594,440.6993713h1.3681641c0.1474609,0,0.269043,0.0371094,0.3657227,0.1103516
				c0.0961914,0.0742188,0.1616211,0.1679688,0.1953125,0.28125l2.5161133,8.4658203
				c0.0454102,0.1523438,0.0864258,0.3173828,0.1235352,0.4931641c0.0366211,0.1748047,0.0717773,0.359375,0.105957,0.5517578
				c0.0395508-0.1923828,0.0791016-0.3779297,0.1191406-0.5566406c0.0395508-0.1787109,0.0849609-0.3408203,0.1357422-0.4882812
				l2.8647461-8.4658203c0.0336914-0.0966797,0.1005859-0.1855469,0.199707-0.2685547
				c0.0991211-0.0820312,0.2197266-0.1230469,0.3613281-0.1230469h0.4760742c0.1469727,0,0.2675781,0.0371094,0.3608398,0.1103516
				c0.09375,0.0742188,0.1601562,0.1679688,0.2001953,0.28125l2.847168,8.4658203
				c0.1020508,0.2949219,0.1928711,0.6318359,0.2719727,1.0117188c0.0341797-0.1875,0.0654297-0.3662109,0.09375-0.5361328
				s0.0649414-0.328125,0.1103516-0.4755859l2.5244141-8.4658203c0.0283203-0.1025391,0.0922852-0.1933594,0.1914062-0.2724609
				s0.2197266-0.1191406,0.3613281-0.1191406h1.2832031l-3.7993164,12.1806641h-1.4790039l-3.0854492-9.2900391
				c-0.0625-0.1757812-0.1191406-0.3798828-0.1699219-0.6123047c-0.0283203,0.1132812-0.0551758,0.2226562-0.0810547,0.3271484
				c-0.0253906,0.1044922-0.0522461,0.1992188-0.0805664,0.2851562l-3.1025391,9.2900391h-1.4790039L-132.8808594,440.6993713z"/>
			<path class="st0" d="M-114.4360352,452.8800354v-12.5205078h1.512207v5.0664062
				c0.3691406-0.3916016,0.7773438-0.7041016,1.2246094-0.9394531s0.9628906-0.3525391,1.546875-0.3525391
				c0.4707031,0,0.8847656,0.0771484,1.2460938,0.2333984c0.359375,0.15625,0.6601562,0.3769531,0.9003906,0.6630859
				s0.4238281,0.6298828,0.5488281,1.0322266c0.1230469,0.4023438,0.1855469,0.8476562,0.1855469,1.3349609v5.4824219h-1.5117188
				v-5.4824219c0-0.6513672-0.1484375-1.1572266-0.4472656-1.5175781c-0.296875-0.359375-0.7519531-0.5390625-1.3632812-0.5390625
				c-0.4472656,0-0.8652344,0.1074219-1.2539062,0.3222656c-0.3886719,0.2158203-0.7460938,0.5078125-1.0761719,0.8759766v6.3408203
				H-114.4360352z"/>
			<path class="st0" d="M-102.9609375,441.5665588c0,0.1474609-0.0292969,0.2851562-0.0888672,0.4121094
				c-0.0595703,0.1279297-0.1386719,0.2412109-0.2382812,0.3398438c-0.0986328,0.0996094-0.2138672,0.1777344-0.34375,0.234375
				c-0.1308594,0.0566406-0.2695312,0.0849609-0.4169922,0.0849609s-0.2841797-0.0283203-0.4121094-0.0849609
				c-0.1269531-0.0566406-0.2412109-0.1347656-0.3398438-0.234375c-0.0996094-0.0986328-0.1777344-0.2119141-0.2333984-0.3398438
				c-0.0576172-0.1269531-0.0849609-0.2646484-0.0849609-0.4121094s0.0273438-0.2871094,0.0849609-0.4208984
				c0.0556641-0.1328125,0.1337891-0.2490234,0.2333984-0.3486328c0.0986328-0.0986328,0.2128906-0.1767578,0.3398438-0.2333984
				c0.1279297-0.0566406,0.2646484-0.0849609,0.4121094-0.0849609s0.2861328,0.0283203,0.4169922,0.0849609
				c0.1298828,0.0566406,0.2451172,0.1347656,0.34375,0.2333984c0.0996094,0.0996094,0.1787109,0.2158203,0.2382812,0.3486328
				C-102.9902344,441.2794495-102.9609375,441.4190979-102.9609375,441.5665588z M-103.3007812,444.2696838v8.6103516h-1.5126953
				v-8.6103516H-103.3007812z"/>
			<path class="st0" d="M-98.0224609,453.0157776c-0.6796875,0-1.203125-0.1894531-1.5683594-0.5693359
				s-0.5478516-0.9267578-0.5478516-1.640625v-5.2695312h-1.0371094c-0.0908203,0-0.1669922-0.0273438-0.2294922-0.0810547
				s-0.09375-0.1376953-0.09375-0.2509766v-0.6035156l1.4111328-0.1777344l0.3486328-2.6611328
				c0.0107422-0.0849609,0.0478516-0.1542969,0.1103516-0.2080078s0.1416016-0.0810547,0.2382812-0.0810547h0.7646484v2.9667969
				h2.4648438v1.0966797h-2.4648438v5.1679688c0,0.3623047,0.0878906,0.6318359,0.2636719,0.8076172
				s0.4023438,0.2626953,0.6796875,0.2626953c0.1582031,0,0.2958984-0.0205078,0.4121094-0.0634766
				c0.1162109-0.0419922,0.2167969-0.0888672,0.3017578-0.1396484c0.0849609-0.0517578,0.1572266-0.0986328,0.2167969-0.140625
				c0.0595703-0.0429688,0.1123047-0.0634766,0.1572266-0.0634766c0.0791016,0,0.1503906,0.0478516,0.2128906,0.1445312
				l0.4414062,0.7216797c-0.2607422,0.2441406-0.5751953,0.4355469-0.9433594,0.5742188
				S-97.6318359,453.0157776-98.0224609,453.0157776z"/>
			<path class="st0" d="M-90.8828125,444.1339417c0.515625,0,0.9912109,0.0859375,1.4277344,0.2587891
				s0.8134766,0.421875,1.1308594,0.7480469s0.5654297,0.7285156,0.7441406,1.2070312
				c0.1777344,0.4785156,0.2675781,1.0244141,0.2675781,1.6357422c0,0.2382812-0.0253906,0.3974609-0.0771484,0.4765625
				c-0.0507812,0.0791016-0.1474609,0.1191406-0.2890625,0.1191406h-5.7285156
				c0.0117188,0.5439453,0.0849609,1.0166016,0.2207031,1.4189453c0.1367188,0.4023438,0.3232422,0.7382812,0.5615234,1.0078125
				c0.2373047,0.2685547,0.5214844,0.4697266,0.8496094,0.6035156c0.3291016,0.1328125,0.6972656,0.1992188,1.1054688,0.1992188
				c0.3789062,0,0.7060547-0.0439453,0.9814453-0.1318359c0.2744141-0.0878906,0.5117188-0.1826172,0.7099609-0.2841797
				c0.1982422-0.1025391,0.3642578-0.1972656,0.4970703-0.2851562s0.2480469-0.1318359,0.34375-0.1318359
				c0.125,0,0.2216797,0.0488281,0.2890625,0.1445312l0.4257812,0.5527344
				c-0.1875,0.2265625-0.4111328,0.4238281-0.671875,0.5908203s-0.5400391,0.3046875-0.8369141,0.4121094
				c-0.2978516,0.1074219-0.6054688,0.1884766-0.9228516,0.2421875s-0.6318359,0.0810547-0.9433594,0.0810547
				c-0.5947266,0-1.1435547-0.1005859-1.6445312-0.3017578c-0.5019531-0.2011719-0.9355469-0.4960938-1.3007812-0.8837891
				c-0.3652344-0.3886719-0.6503906-0.8691406-0.8544922-1.4414062c-0.203125-0.5722656-0.3056641-1.2294922-0.3056641-1.9716797
				c0-0.6005859,0.0917969-1.1611328,0.2763672-1.6826172c0.1835938-0.5214844,0.4492188-0.9736328,0.7949219-1.3564453
				c0.3457031-0.3818359,0.7675781-0.6826172,1.2666016-0.9003906
				C-92.0673828,444.2423401-91.5058594,444.1339417-90.8828125,444.1339417z M-90.8486328,445.2472229
				c-0.7314453,0-1.3066406,0.2109375-1.7255859,0.6328125c-0.4189453,0.4228516-0.6796875,1.0078125-0.7822266,1.7558594h4.6835938
				c0-0.3515625-0.0478516-0.6728516-0.1445312-0.9648438s-0.2382812-0.5439453-0.4248047-0.7568359
				c-0.1875-0.2128906-0.4150391-0.3769531-0.6845703-0.4931641
				C-90.1953125,445.3048401-90.5029297,445.2472229-90.8486328,445.2472229z"/>
			<path class="st0" d="M-83.3359375,448.3243713v4.5556641h-1.6396484v-12.1806641h3.5947266
				c0.7705078,0,1.4414062,0.0898438,2.0107422,0.2675781c0.5693359,0.1787109,1.0410156,0.4326172,1.4150391,0.7607422
				c0.3740234,0.3291016,0.6533203,0.7255859,0.8369141,1.1904297c0.1845703,0.4648438,0.2763672,0.9833984,0.2763672,1.5556641
				c0,0.5664062-0.0986328,1.0849609-0.296875,1.5556641c-0.1992188,0.4697266-0.4892578,0.875-0.8710938,1.2148438
				c-0.3828125,0.3398438-0.8574219,0.6054688-1.4238281,0.7949219c-0.5673828,0.1904297-1.2158203,0.2851562-1.9472656,0.2851562
				H-83.3359375z M-83.3359375,447.014801h1.9550781c0.4707031,0,0.8857422-0.0625,1.2460938-0.1865234
				c0.359375-0.125,0.6611328-0.2988281,0.9042969-0.5234375c0.2441406-0.2236328,0.4287109-0.4912109,0.5527344-0.8027344
				c0.125-0.3115234,0.1875-0.6542969,0.1875-1.0283203c0-0.7763672-0.2392578-1.3828125-0.71875-1.8193359
				c-0.4785156-0.4365234-1.2021484-0.6542969-2.171875-0.6542969h-1.9550781V447.014801z"/>
			<path class="st0" d="M-69.0966797,452.8800354h-0.671875c-0.1474609,0-0.2666016-0.0224609-0.3574219-0.0683594
				c-0.0908203-0.0449219-0.1494141-0.1416016-0.1777344-0.2890625l-0.1699219-0.7988281
				c-0.2275391,0.2041016-0.4482422,0.3867188-0.6630859,0.5488281c-0.2158203,0.1611328-0.4423828,0.296875-0.6806641,0.4072266
				c-0.2373047,0.1113281-0.4912109,0.1943359-0.7607422,0.2509766c-0.2685547,0.0566406-0.5683594,0.0849609-0.8964844,0.0849609
				c-0.3339844,0-0.6474609-0.046875-0.9394531-0.140625s-0.5449219-0.234375-0.7607422-0.421875
				c-0.2148438-0.1875-0.3867188-0.4248047-0.5136719-0.7119141c-0.1279297-0.2880859-0.1914062-0.6269531-0.1914062-1.0195312
				c0-0.3408203,0.09375-0.6699219,0.2802734-0.9853516s0.4882812-0.5957031,0.9052734-0.8398438
				c0.4160156-0.2451172,0.9619141-0.4453125,1.6357422-0.6015625c0.6748047-0.15625,1.4990234-0.234375,2.4736328-0.234375
				v-0.6757812c0-0.6728516-0.1425781-1.1816406-0.4287109-1.5263672c-0.2861328-0.3457031-0.7099609-0.5175781-1.2705078-0.5175781
				c-0.3691406,0-0.6787109,0.0458984-0.9316406,0.1396484c-0.2519531,0.09375-0.4697266,0.1982422-0.6542969,0.3144531
				c-0.1835938,0.1162109-0.3427734,0.2216797-0.4755859,0.3144531c-0.1337891,0.09375-0.2646484,0.140625-0.3955078,0.140625
				c-0.1015625,0-0.1914062-0.0273438-0.2675781-0.0810547s-0.1376953-0.1201172-0.1826172-0.1992188l-0.2724609-0.484375
				c0.4765625-0.4589844,0.9892578-0.8027344,1.5390625-1.0292969c0.5488281-0.2265625,1.1582031-0.3398438,1.8271484-0.3398438
				c0.4814453,0,0.9091797,0.0800781,1.2832031,0.2382812s0.6884766,0.3798828,0.9433594,0.6630859
				c0.2558594,0.2832031,0.4482422,0.6259766,0.578125,1.0283203c0.1308594,0.4023438,0.1962891,0.8447266,0.1962891,1.3261719
				V452.8800354z M-73.0244141,451.9532776c0.2666016,0,0.5107422-0.0263672,0.7314453-0.0800781
				c0.2207031-0.0546875,0.4287109-0.1308594,0.625-0.2294922c0.1953125-0.0996094,0.3818359-0.2197266,0.5605469-0.3613281
				s0.3525391-0.3037109,0.5224609-0.484375v-1.7773438c-0.6962891,0-1.2890625,0.0449219-1.7763672,0.1328125
				c-0.4873047,0.0888672-0.8837891,0.2041016-1.1894531,0.3466797c-0.3066406,0.1425781-0.5283203,0.3105469-0.6679688,0.5039062
				c-0.1386719,0.1943359-0.2080078,0.4101562-0.2080078,0.6503906c0,0.2275391,0.0371094,0.4238281,0.1103516,0.5898438
				c0.0742188,0.1650391,0.1728516,0.3007812,0.2978516,0.40625c0.125,0.1044922,0.2714844,0.1816406,0.4423828,0.2304688
				C-73.40625,451.9298401-73.2226562,451.9532776-73.0244141,451.9532776z"/>
			<path class="st0" d="M-66.8027344,455.7950745v-11.5253906h0.9003906c0.2158203,0,0.3515625,0.1044922,0.4082031,0.3144531
				l0.1279297,1.0195312c0.3681641-0.4472656,0.7890625-0.8076172,1.2617188-1.0791016
				c0.4736328-0.2724609,1.0185547-0.4082031,1.6367188-0.4082031c0.4931641,0,0.9404297,0.0947266,1.3427734,0.2851562
				c0.4023438,0.1894531,0.7451172,0.4697266,1.0283203,0.8408203c0.2832031,0.3720703,0.5019531,0.8320312,0.6542969,1.3818359
				c0.1533203,0.5498047,0.2294922,1.1816406,0.2294922,1.8955078c0,0.6347656-0.0849609,1.2255859-0.2548828,1.7724609
				s-0.4130859,1.0195312-0.7304688,1.4189453s-0.7070312,0.7138672-1.1689453,0.9433594s-0.9814453,0.3447266-1.5595703,0.3447266
				c-0.5332031,0-0.9873047-0.0878906-1.3642578-0.2636719s-0.7099609-0.4248047-0.9990234-0.7480469v3.8076172H-66.8027344z
				 M-62.9697266,445.3409729c-0.4931641,0-0.9248047,0.1132812-1.2958984,0.3398438s-0.7128906,0.546875-1.0244141,0.9599609
				v4.1650391c0.2773438,0.3740234,0.5820312,0.6376953,0.9140625,0.7910156
				c0.3310547,0.1523438,0.7011719,0.2294922,1.109375,0.2294922c0.7988281,0,1.4130859-0.2861328,1.84375-0.8583984
				s0.6464844-1.3886719,0.6464844-2.4482422c0-0.5615234-0.0498047-1.0429688-0.1484375-1.4453125
				c-0.0996094-0.4023438-0.2421875-0.7324219-0.4296875-0.9902344c-0.1865234-0.2578125-0.4160156-0.4462891-0.6884766-0.5654297
				S-62.6240234,445.3409729-62.9697266,445.3409729z"/>
			<path class="st0" d="M-54.0107422,444.1339417c0.515625,0,0.9912109,0.0859375,1.4277344,0.2587891
				s0.8134766,0.421875,1.1308594,0.7480469s0.5654297,0.7285156,0.7441406,1.2070312
				c0.1777344,0.4785156,0.2675781,1.0244141,0.2675781,1.6357422c0,0.2382812-0.0253906,0.3974609-0.0771484,0.4765625
				c-0.0507812,0.0791016-0.1474609,0.1191406-0.2890625,0.1191406h-5.7285156
				c0.0117188,0.5439453,0.0849609,1.0166016,0.2207031,1.4189453c0.1367188,0.4023438,0.3232422,0.7382812,0.5615234,1.0078125
				c0.2373047,0.2685547,0.5214844,0.4697266,0.8496094,0.6035156c0.3291016,0.1328125,0.6972656,0.1992188,1.1054688,0.1992188
				c0.3789062,0,0.7060547-0.0439453,0.9814453-0.1318359c0.2744141-0.0878906,0.5117188-0.1826172,0.7099609-0.2841797
				c0.1982422-0.1025391,0.3642578-0.1972656,0.4970703-0.2851562s0.2480469-0.1318359,0.34375-0.1318359
				c0.125,0,0.2216797,0.0488281,0.2890625,0.1445312l0.4257812,0.5527344
				c-0.1875,0.2265625-0.4111328,0.4238281-0.671875,0.5908203s-0.5400391,0.3046875-0.8369141,0.4121094
				c-0.2978516,0.1074219-0.6054688,0.1884766-0.9228516,0.2421875s-0.6318359,0.0810547-0.9433594,0.0810547
				c-0.5947266,0-1.1435547-0.1005859-1.6445312-0.3017578c-0.5019531-0.2011719-0.9355469-0.4960938-1.3007812-0.8837891
				c-0.3652344-0.3886719-0.6503906-0.8691406-0.8544922-1.4414062c-0.203125-0.5722656-0.3056641-1.2294922-0.3056641-1.9716797
				c0-0.6005859,0.0917969-1.1611328,0.2763672-1.6826172c0.1835938-0.5214844,0.4492188-0.9736328,0.7949219-1.3564453
				c0.3457031-0.3818359,0.7675781-0.6826172,1.2666016-0.9003906
				C-55.1953125,444.2423401-54.6337891,444.1339417-54.0107422,444.1339417z M-53.9765625,445.2472229
				c-0.7314453,0-1.3066406,0.2109375-1.7255859,0.6328125c-0.4189453,0.4228516-0.6796875,1.0078125-0.7822266,1.7558594h4.6835938
				c0-0.3515625-0.0478516-0.6728516-0.1445312-0.9648438s-0.2382812-0.5439453-0.4248047-0.7568359
				c-0.1875-0.2128906-0.4150391-0.3769531-0.6845703-0.4931641
				C-53.3232422,445.3048401-53.6308594,445.2472229-53.9765625,445.2472229z"/>
			<path class="st0" d="M-48.5107422,452.8800354v-8.6103516h0.8671875c0.1640625,0,0.2773438,0.03125,0.3398438,0.09375
				s0.1044922,0.1699219,0.1269531,0.3222656l0.1025391,1.34375c0.2939453-0.6005859,0.6582031-1.0703125,1.0917969-1.4072266
				s0.9423828-0.5058594,1.5263672-0.5058594c0.2373047,0,0.453125,0.0273438,0.6455078,0.0810547
				s0.3710938,0.1289062,0.5351562,0.2255859l-0.1953125,1.1298828c-0.0390625,0.1416016-0.1269531,0.2128906-0.2636719,0.2128906
				c-0.0791016,0-0.2011719-0.0273438-0.3652344-0.0810547s-0.3935547-0.0810547-0.6884766-0.0810547
				c-0.5273438,0-0.9677734,0.1533203-1.3212891,0.4589844c-0.3544922,0.3066406-0.6503906,0.7509766-0.8886719,1.3349609v5.4824219
				H-48.5107422z"/>
		</g>
	</g>
</switch>
</svg>
