<svg xmlns="http://www.w3.org/2000/svg" xmlns:xlink="http://www.w3.org/1999/xlink" preserveAspectRatio="xMidYMid" width="105" height="101" viewBox="0 0 105 101">
  <defs>
    <style>
      .cls-1 {
        fill: #fff;
        fill-rule: evenodd;
      }
    </style>
  </defs>
  <path d="M104.377,89.112 C102.270,93.115 94.634,93.648 88.578,91.247 C83.312,89.379 79.889,85.644 80.152,82.442 C80.679,78.973 85.682,76.572 92.528,77.639 C100.954,78.973 107.010,84.576 104.377,89.112 ZM89.895,69.368 C84.628,73.103 78.309,72.836 74.623,69.901 C71.200,66.967 70.410,61.897 73.306,57.361 C76.992,51.758 85.155,48.556 91.211,52.025 C97.794,56.027 96.478,64.565 89.895,69.368 ZM68.830,39.484 C67.513,40.285 66.460,38.951 66.460,36.283 C66.460,33.614 68.040,30.679 69.356,30.146 C70.673,29.879 71.463,31.747 71.200,34.148 C71.200,36.549 70.146,38.951 68.830,39.484 ZM64.354,27.478 C62.510,25.343 62.247,20.007 63.564,16.271 C65.143,12.536 67.513,12.536 68.830,15.738 C70.146,18.673 70.146,22.942 69.093,25.877 C68.040,28.545 65.933,29.612 64.354,27.478 ZM63.564,50.424 C62.510,49.623 62.774,47.222 63.827,45.087 C65.143,42.953 66.723,42.153 67.513,43.487 C68.303,44.554 67.776,46.688 66.986,48.556 C66.197,50.157 64.617,50.957 63.564,50.424 ZM68.566,91.514 C68.303,92.848 66.197,92.581 64.354,91.247 C62.247,89.913 60.930,87.778 60.930,86.444 C60.930,84.843 62.510,84.576 64.880,85.910 C67.250,87.511 68.830,89.913 68.566,91.514 ZM57.244,58.428 C55.664,59.496 53.821,58.962 53.821,56.561 C53.821,54.159 55.927,50.957 58.034,50.157 C60.140,49.357 61.194,50.691 60.930,52.825 C60.667,54.960 59.087,57.361 57.244,58.428 ZM55.927,24.809 C52.768,26.143 48.028,22.942 45.658,16.271 C42.499,8.000 44.342,-0.005 49.345,-0.005 C53.821,-0.005 58.034,6.399 59.351,13.069 C60.404,18.673 58.824,23.475 55.927,24.809 ZM47.765,35.749 C46.975,40.285 43.025,43.487 37.759,43.220 C31.176,42.953 24.330,37.350 24.330,30.146 C24.330,22.675 32.230,19.473 39.602,22.675 C45.395,25.343 48.555,31.213 47.765,35.749 ZM23.277,59.496 C20.907,60.830 17.747,61.097 16.694,60.029 C15.641,58.962 16.957,57.361 19.064,56.294 C21.170,55.493 23.540,55.227 24.857,56.027 C26.173,56.827 25.647,58.428 23.277,59.496 ZM16.694,66.166 C15.641,68.834 11.428,71.769 7.478,72.303 C3.528,72.836 2.212,70.702 4.318,67.767 C6.425,65.366 10.111,63.231 13.008,62.964 C15.904,62.697 17.747,64.032 16.694,66.166 ZM6.952,77.906 C11.164,74.171 16.167,73.103 18.537,74.971 C21.434,77.106 20.907,82.709 16.431,88.312 C10.901,94.982 3.265,97.650 0.632,93.115 C-1.474,89.112 1.949,82.175 6.952,77.906 ZM31.966,57.628 C29.596,57.628 28.016,56.561 28.806,55.227 C29.333,54.159 31.440,53.359 33.283,53.359 C35.126,53.359 36.969,54.159 36.706,55.227 C36.442,56.561 34.336,57.628 31.966,57.628 ZM32.230,76.572 C36.442,74.971 41.182,76.839 43.552,81.641 C46.712,87.778 45.132,96.316 39.076,99.785 C32.493,103.520 25.910,98.184 25.120,90.180 C24.593,83.776 28.016,78.173 32.230,76.572 ZM39.339,60.296 C37.759,58.962 38.022,57.361 40.129,56.294 C41.972,55.493 44.868,55.760 46.712,56.561 C48.555,57.895 49.081,59.762 46.975,60.830 C44.868,62.164 41.182,61.630 39.339,60.296 ZM54.084,64.832 C56.191,66.166 57.771,69.368 57.244,71.769 C56.981,73.904 55.137,74.437 53.558,73.103 C51.978,71.769 50.661,69.368 50.661,67.233 C50.661,64.832 51.978,63.498 54.084,64.832 ZM54.348,76.572 C55.401,76.038 57.507,77.372 58.824,79.507 C60.140,81.641 59.877,83.509 58.561,83.509 C57.244,83.509 55.664,82.175 54.611,80.574 C53.558,78.706 53.294,76.839 54.348,76.572 ZM73.569,88.579 C76.466,88.312 80.942,90.446 83.312,93.648 C85.682,96.850 84.628,98.984 80.942,98.718 C78.309,98.184 74.623,95.783 72.779,93.381 C70.936,90.980 71.200,88.845 73.569,88.579 Z" class="cls-1"/>
</svg>
