<svg xmlns="http://www.w3.org/2000/svg" xmlns:xlink="http://www.w3.org/1999/xlink" preserveAspectRatio="xMidYMid" width="205" height="197" viewBox="0 0 205 197">
  <defs>
    <style>
      .cls-1 {
        fill: #fff;
        fill-opacity: 0.2;
        fill-rule: evenodd;
      }
    </style>
  </defs>
  <path d="M203.783,173.815 C199.671,181.621 184.762,182.661 172.938,177.978 C162.657,174.335 155.973,167.050 156.487,160.805 C157.516,154.040 167.283,149.357 180.650,151.438 C197.100,154.040 208.924,164.968 203.783,173.815 ZM175.509,135.306 C165.227,142.592 152.889,142.071 145.692,136.347 C139.009,130.623 137.466,120.736 143.121,111.889 C150.318,100.961 166.255,94.716 178.079,101.481 C190.931,109.287 188.361,125.939 175.509,135.306 ZM134.382,77.023 C131.811,78.584 129.755,75.982 129.755,70.779 C129.755,65.575 132.840,59.850 135.410,58.810 C137.980,58.289 139.523,61.932 139.009,66.615 C139.009,71.299 136.952,75.982 134.382,77.023 ZM125.642,53.606 C122.044,49.443 121.530,39.035 124.100,31.750 C127.185,24.464 131.811,24.464 134.382,30.709 C136.952,36.433 136.952,44.759 134.896,50.484 C132.840,55.687 128.727,57.769 125.642,53.606 ZM124.100,98.359 C122.044,96.798 122.558,92.114 124.614,87.951 C127.185,83.788 130.269,82.227 131.811,84.829 C133.354,86.911 132.325,91.074 130.783,94.716 C129.241,97.839 126.156,99.400 124.100,98.359 ZM133.868,178.498 C133.354,181.100 129.241,180.580 125.642,177.978 C121.530,175.376 118.959,171.213 118.959,168.611 C118.959,165.489 122.044,164.968 126.671,167.570 C131.297,170.692 134.382,175.376 133.868,178.498 ZM111.762,113.971 C108.678,116.052 105.079,115.011 105.079,110.328 C105.079,105.644 109.192,99.400 113.304,97.839 C117.417,96.277 119.473,98.879 118.959,103.043 C118.445,107.206 115.361,111.889 111.762,113.971 ZM109.192,48.402 C103.023,51.004 93.769,44.759 89.142,31.750 C82.973,15.618 86.572,0.006 96.340,0.006 C105.079,0.006 113.304,12.496 115.875,25.505 C117.931,36.433 114.847,45.800 109.192,48.402 ZM93.255,69.738 C91.713,78.584 84.002,84.829 73.720,84.309 C60.868,83.788 47.502,72.860 47.502,58.810 C47.502,44.239 62.924,37.994 77.319,44.239 C88.628,49.443 94.797,60.891 93.255,69.738 ZM45.445,116.052 C40.819,118.654 34.650,119.174 32.593,117.093 C30.537,115.011 33.107,111.889 37.220,109.808 C41.333,108.246 45.959,107.726 48.530,109.287 C51.100,110.848 50.072,113.971 45.445,116.052 ZM32.593,129.062 C30.537,134.266 22.312,139.990 14.600,141.031 C6.889,142.071 4.318,137.908 8.431,132.184 C12.544,127.501 19.741,123.338 25.396,122.817 C31.051,122.297 34.650,124.899 32.593,129.062 ZM13.572,151.959 C21.797,144.673 31.565,142.592 36.192,146.234 C41.847,150.397 40.819,161.326 32.079,172.254 C21.283,185.263 6.375,190.467 1.234,181.621 C-2.879,173.815 3.804,160.285 13.572,151.959 ZM62.410,112.409 C57.783,112.409 54.699,110.328 56.241,107.726 C57.269,105.644 61.382,104.083 64.981,104.083 C68.579,104.083 72.178,105.644 71.664,107.726 C71.150,110.328 67.037,112.409 62.410,112.409 ZM62.924,149.357 C71.150,146.234 80.403,149.877 85.030,159.244 C91.199,171.213 88.114,187.865 76.290,194.630 C63.438,201.916 50.586,191.508 49.044,175.896 C48.016,163.407 54.699,152.479 62.924,149.357 ZM76.804,117.613 C73.720,115.011 74.234,111.889 78.347,109.808 C81.945,108.246 87.600,108.767 91.199,110.328 C94.797,112.930 95.826,116.573 91.713,118.654 C87.600,121.256 80.403,120.215 76.804,117.613 ZM105.593,126.460 C109.706,129.062 112.790,135.306 111.762,139.990 C111.248,144.153 107.649,145.194 104.565,142.592 C101.480,139.990 98.910,135.306 98.910,131.143 C98.910,126.460 101.480,123.858 105.593,126.460 ZM106.107,149.357 C108.164,148.316 112.276,150.918 114.847,155.081 C117.417,159.244 116.903,162.887 114.333,162.887 C111.762,162.887 108.678,160.285 106.621,157.162 C104.565,153.520 104.051,149.877 106.107,149.357 ZM143.635,172.774 C149.290,172.254 158.030,176.417 162.657,182.661 C167.283,188.906 165.227,193.069 158.030,192.549 C152.889,191.508 145.692,186.824 142.093,182.141 C138.494,177.457 139.009,173.294 143.635,172.774 Z" class="cls-1"/>
</svg>
